<!DOCTYPE svg PUBLIC "-//W3C//DTD SVG 1.1//EN" "http://www.w3.org/Graphics/SVG/1.1/DTD/svg11.dtd">
<!-- Uploaded to: SVG Repo, www.svgrepo.com, Transformed by: SVG Repo Mixer Tools -->
<svg fill="#FFFFFF" width="800px" height="800px" viewBox="0 0 16 16" xmlns="http://www.w3.org/2000/svg" stroke="#FFFFFF">
<g id="SVGRepo_bgCarrier" stroke-width="0"/>
<g id="SVGRepo_tracerCarrier" stroke-linecap="round" stroke-linejoin="round"/>
<g id="SVGRepo_iconCarrier">
<path d="M8 .5A7.77 7.77 0 0 0 0 8a7.77 7.77 0 0 0 8 7.5A7.77 7.77 0 0 0 16 8 7.77 7.77 0 0 0 8 .5zm0 13.75A6.52 6.52 0 0 1 1.25 8 6.52 6.52 0 0 1 8 1.75 6.52 6.52 0 0 1 14.75 8 6.52 6.52 0 0 1 8 14.25z"/>
<path d="M8.63 4.25H7.38v4.38H11V7.38H8.63V4.25z"/>
</g>
</svg>